<?xml version="1.0" encoding="utf-8"?>
<!-- Generator: Adobe Illustrator 27.8.1, SVG Export Plug-In . SVG Version: 6.00 Build 0)  -->
<svg version="1.1" id="Layer_1" xmlns="http://www.w3.org/2000/svg" xmlns:xlink="http://www.w3.org/1999/xlink" x="0px" y="0px"
	 viewBox="0 0 540.1 540.1" style="enable-background:new 0 0 540.1 540.1;" xml:space="preserve">
<style type="text/css">
	.st0{fill:#FF8300;}
	.st1{fill:#FFFFFF;}
</style>
<circle class="st0" cx="270" cy="270" r="270"/>
<g>
	<path class="st1" d="M212.3,111.7c-70.2-0.1-112.3,125.4-118.4,195.9v0c-0.2,1.9-1.9,3.2-4,3.3c-2.3,0.1-3.8-1.1-3.9-2.8
		c4.2-115.4,51.7-272.2,126.3-272.2h0.1c74.6,0,122.1,156.9,126.3,272.2c-0.1,1.7-1.6,2.9-3.9,2.8c-2.1-0.1-3.8-1.5-4-3.3v0
		C324.6,237.1,282.5,111.6,212.3,111.7z"/>
</g>
<g>
	<path class="st1" d="M312.3,435.5c70.2,0.1,112.3-125.4,118.4-195.9v0c0.2-1.9,1.9-3.2,4-3.3c2.3-0.1,3.8,1.1,3.9,2.8
		c-4.2,115.4-51.7,272.2-126.3,272.2h0c-74.6,0-122.1-156.9-126.3-272.2c0.1-1.7,1.6-2.9,3.9-2.8c2.1,0.1,3.8,1.4,4,3.3v0
		C200,310.1,242.1,435.6,312.3,435.5z"/>
</g>
</svg>
