<?xml version="1.0" encoding="utf-8"?>
<svg viewBox="0 0 78 36" fill="currentColor" xmlns="http://www.w3.org/2000/svg" xmlns:xlink="http://www.w3.org/1999/xlink" role="img">
  <title>League Pass</title>
  <path d="M14.1148 5.19722C14.1991 4.88511 14.4982 4.44218 14.5995 4.09621C14.6824 3.81 14.6539 3.60281 14.5397 3.54836C14.5683 3.1803 14.4877 2.81197 14.3074 2.48757C14.1272 2.16316 13.8549 1.89645 13.5234 1.71941C13.1918 1.54238 12.8151 1.46255 12.4382 1.48949C12.0614 1.51644 11.7005 1.64901 11.3989 1.87132C11.0973 2.09362 10.8677 2.39622 10.7377 2.74281C10.6077 3.0894 10.5828 3.46526 10.666 3.82533C10.7492 4.18539 10.937 4.51436 11.2068 4.77277C11.4766 5.03119 11.817 5.20808 12.1871 5.28222C12.333 5.31182 12.482 5.32452 12.631 5.32008C12.7007 5.3491 12.7643 5.39053 12.8186 5.44226C12.909 5.5359 12.9593 5.8407 12.8913 5.98746C12.8233 6.13422 12.4155 6.5632 11.958 7.04996C11.5006 7.53672 11.3327 7.58519 10.918 8.06929C10.7934 8.21908 10.6999 8.39119 10.6427 8.57597C10.3861 8.71557 10.1623 8.90602 9.98543 9.13511C9.72373 9.49504 9.35531 10.1976 9.35531 10.1976C9.1954 10.2819 9.04205 10.3776 8.89649 10.4838C8.71067 10.6326 8.54466 10.8034 8.40232 10.9925C8.39804 10.8979 8.41904 10.8038 8.46326 10.7195C8.50748 10.6352 8.57338 10.5636 8.6545 10.5117C8.7721 10.4241 8.96174 9.98777 8.96514 9.48507C9.0582 9.43838 9.14043 9.37349 9.20675 9.29444C9.27306 9.21539 9.32203 9.12387 9.35063 9.02556C9.37922 8.92725 9.38682 8.82425 9.37297 8.72295C9.35911 8.62165 9.32408 8.52421 9.27007 8.43668C9.21605 8.34916 9.1442 8.27342 9.05896 8.21415C8.97373 8.15489 8.87694 8.11338 8.7746 8.09219C8.67225 8.07101 8.56655 8.0706 8.46404 8.09099C8.36152 8.11138 8.2644 8.15214 8.17868 8.21074C7.83195 8.06242 7.44626 8.02432 7.07615 8.10183C6.92525 8.12972 6.77638 8.18816 6.73968 8.29109C6.65403 8.31964 6.50177 8.37609 6.33183 8.62312C6.12791 8.91929 6.21356 9.10257 6.17821 9.21214C6.14899 9.29582 5.83223 9.48375 5.96274 10.1418C6.01576 10.4075 5.99808 10.6027 6.01712 10.6996C6.02468 10.7482 6.04591 10.7938 6.07843 10.8314C6.11096 10.8689 6.1535 10.8968 6.20132 10.9121C6.2727 10.9427 6.33727 10.9646 6.41001 10.9912C6.51536 11.0257 6.56431 11.0576 6.58334 11.1525C6.5881 11.1757 6.59083 11.1993 6.5915 11.2229C6.59504 11.276 6.5923 11.3292 6.58334 11.3816C6.57924 11.4023 6.57045 11.4218 6.55763 11.4387C6.54481 11.4555 6.52828 11.4694 6.50925 11.4793L5.76697 11.5065C5.32174 11.4905 5.09607 11.63 5.09607 11.63C5.09607 11.63 4.6624 11.6579 4.36263 11.8352C4.06287 12.0125 3.68289 12.468 3.6054 12.8771C3.56093 13.0294 3.50033 13.1767 3.42459 13.3167C3.36682 13.4157 3.10444 13.5637 2.90323 13.7709C2.77952 13.3486 2.61163 12.8127 2.60755 12.4468C2.60755 12.4322 2.60755 12.3678 2.60755 12.3512C2.60379 12.2342 2.62557 12.1179 2.67144 12.0098C2.79967 11.8363 2.86562 11.6262 2.85905 11.4122C2.85666 11.2602 2.87962 11.1088 2.92702 10.9639C2.95897 10.853 2.92702 10.7747 2.9916 10.6737C3.02559 10.6027 3.07997 10.5336 3.07589 10.4526C3.05686 10.3616 2.93994 10.359 2.87197 10.3909C2.73602 10.45 2.68368 10.6053 2.64493 10.7362C2.61095 10.8318 2.61638 10.9354 2.55997 10.9666C2.52699 10.9832 2.48917 10.9881 2.45288 10.9806C2.4166 10.9731 2.38408 10.9536 2.3608 10.9254C2.30559 10.8518 2.26099 10.7712 2.22825 10.6857C2.18475 10.5907 2.03317 10.0396 1.86187 9.74738C1.81769 9.68097 1.77487 9.60527 1.69466 9.5807C1.64164 9.56011 1.56211 9.60992 1.5893 9.66902C1.65727 9.83703 1.73001 10.001 1.78099 10.1757C1.71705 10.0644 1.64408 9.95822 1.56279 9.85828C1.50694 9.78186 1.43393 9.71894 1.34935 9.67433C1.33682 9.66804 1.32311 9.66429 1.30906 9.66329C1.29501 9.6623 1.28089 9.66409 1.26756 9.66856C1.25423 9.67302 1.24196 9.68007 1.23149 9.68928C1.22102 9.69848 1.21255 9.70966 1.20661 9.72214C1.19301 9.76464 1.22904 9.80117 1.24807 9.83636C1.36775 9.99364 1.47134 10.162 1.55735 10.3391C1.50193 10.2796 1.43167 10.2352 1.35343 10.2102C1.33201 10.2035 1.30897 10.2034 1.28752 10.2101C1.26607 10.2168 1.24729 10.2298 1.2338 10.2474C1.23127 10.2663 1.23293 10.2855 1.23868 10.3038C1.24443 10.322 1.25412 10.3388 1.2671 10.353C1.36457 10.4627 1.45342 10.5795 1.53288 10.7023C1.59134 10.7973 1.64504 10.8942 1.70418 10.9878C1.65591 10.9546 1.56075 10.9613 1.56347 11.0357C1.60697 11.1685 1.75448 11.2428 1.78506 11.3823C1.89042 11.6811 1.86188 11.98 1.8408 12.3445C1.81973 12.7091 1.87003 13.6727 1.7837 14.1069C1.64776 14.7883 1.66543 15.0585 1.83469 15.8335C1.93325 16.2831 2.40091 16.291 2.75301 16.06C3.34303 15.6735 3.95819 14.8341 4.09889 14.6575C4.21105 14.5167 4.29262 14.2902 4.40478 14.3254C4.60258 14.5426 4.75008 15.5028 4.59442 16.3409C4.56112 16.5221 4.45848 16.8263 4.47615 16.9266C4.49382 17.0268 4.58627 17.0746 4.58423 17.1032C4.5516 17.7267 4.1288 17.8629 3.97994 18.517C3.82836 19.1917 3.88614 19.6339 4.02004 20.2973C4.15395 20.9607 4.45236 21.6255 4.72765 22.1169C4.88459 22.3801 4.99749 22.6662 5.06208 22.9642L5.30407 22.9782C5.30407 22.9782 5.65685 24.3727 6.40457 25.4691C8.56138 28.6267 9.29957 30.0272 9.46339 30.3459C9.61089 30.6255 9.41105 30.6348 9.40697 30.7842C9.40289 30.9336 9.51301 31.0658 9.88279 31.3101C10.2526 31.5545 10.5686 32.3335 10.6985 32.7678C10.8283 33.2021 11.1349 34.0341 11.7956 33.9438C12.4563 33.8535 12.4549 33.0287 12.3217 32.5134C12.1885 31.9981 11.6481 31.7504 11.5502 31.3991C11.4645 31.095 11.0995 30.5292 11.0805 29.8831C11.0786 29.7823 11.0843 29.6815 11.0975 29.5816C11.1383 29.2084 11.349 28.7276 11.3211 28.4354C11.2932 28.1432 10.5408 27.6259 10.3532 27.3138C10.1656 27.0017 10.0738 26.3463 9.9963 26.3124C9.93872 26.2909 9.8778 26.2792 9.81617 26.2779C9.81617 26.2779 9.70402 24.1057 9.39202 23.2066C9.16498 22.5558 8.57633 21.9801 8.57633 21.9801C8.57633 21.9801 8.84823 21.4867 9.19965 20.2269C9.62245 18.7089 8.99573 17.9811 8.82444 17.1324C8.68237 16.4385 8.84891 15.4178 9.28802 14.4098C9.45931 14.018 9.79306 13.0152 9.81549 12.4966C9.82501 12.2582 9.96028 12.0942 10.1914 11.7854C10.4169 11.4933 10.5958 11.1695 10.7223 10.8252C10.8201 10.5336 11.0411 10.2514 11.3918 9.76664C11.5025 9.61478 11.5887 9.44727 11.6474 9.26992C12.0478 8.87397 12.4209 8.45247 12.7642 8.0082C13.3134 7.27773 13.4038 6.86668 13.4439 6.71195C13.484 6.55722 13.7158 6.38988 13.8253 6.14617C13.9347 5.90246 14.0238 5.50867 14.1087 5.1959" fill="currentColor"></path>
  <path d="M22.5687 18.3345H14.3772V11.0684H16.5558V16.4718H22.5687V18.3345Z" fill="currentColor"></path>
  <path d="M23.3694 11.0684H32.0429V12.9277H25.548V13.801H31.7078V15.582H25.548V16.4718H32.1788V18.3312H23.3694V11.0684Z" fill="currentColor"></path>
  <path d="M49.2856 16.7074C51.1889 16.7074 52.2499 16.3594 52.6163 15.694H48.0913V14.1388H54.7854V14.8958C54.7854 17.0454 53.12 18.5907 49.202 18.5907C46.08 18.5907 43.6812 17.1065 43.6812 14.7012C43.6812 12.296 46.08 10.8125 49.202 10.8125C52.3968 10.8125 54.1879 11.8564 54.6909 13.6062H52.2812C51.8312 13.0026 50.7314 12.6958 49.202 12.6958C47.3055 12.6958 45.9229 13.5551 45.9229 14.7012C45.9229 15.9497 47.3368 16.7074 49.2856 16.7074Z" fill="currentColor"></path>
  <path d="M64.3406 14.5399V11.377H66.5157V14.591C66.5157 17.149 64.6125 18.8994 61.2362 18.8994C57.8599 18.8994 55.9567 17.149 55.9567 14.591V11.377H58.1318V14.5399C58.1318 16.218 59.2949 17.0162 61.2328 17.0162C63.1707 17.0162 64.3406 16.218 64.3406 14.5399Z" fill="currentColor"></path>
  <path d="M67.9025 11.0684H76.5766V12.9277H70.0817V13.801H76.2415V15.582H70.0817V16.4718H76.7126V18.3312H67.9025V11.0684Z" fill="currentColor"></path>
  <path d="M16.5558 24.603V26.8164H14.3772V19.5469H20.5887C22.4239 19.5469 23.4905 20.622 23.4905 22.0444C23.4905 23.4562 22.4641 24.603 20.5887 24.603H16.5558ZM16.5558 22.7403H20.4112C20.987 22.7403 21.2494 22.4535 21.2494 22.0444C21.2494 21.6659 20.987 21.4096 20.4112 21.4096H16.5558V22.7403Z" fill="currentColor"></path>
  <path d="M41.0024 24.6639C41.0024 24.2237 40.5619 24.1114 38.7919 24.0397C35.1356 23.8963 33.9522 23.3438 33.9522 21.7368C33.9522 20.2021 35.6066 19.291 38.4459 19.291C41.1485 19.291 42.8458 20.2327 43.1599 21.9413H40.9603C40.7088 21.3483 39.9128 21.0408 38.6342 21.0408C36.9267 21.0408 36.1933 21.2254 36.1933 21.6139C36.1933 21.9825 36.7275 22.0954 38.8232 22.177C42.2171 22.3098 43.2415 22.8524 43.2415 24.5411C43.2415 26.1787 41.555 27.0692 38.9156 27.0692C35.7827 27.0692 34.1071 26.1886 33.6041 24.2748H35.8051C36.0675 25.0325 37.0286 25.3187 38.885 25.3187C40.4049 25.3187 41.0024 25.1348 41.0024 24.6639Z" fill="currentColor"></path>
  <path d="M51.2116 24.6639C51.2116 24.2237 50.7719 24.1114 49.0011 24.0397C45.3455 23.8963 44.1614 23.3438 44.1614 21.7368C44.1614 20.2021 45.8166 19.291 48.6558 19.291C51.3585 19.291 53.0551 20.2327 53.3698 21.9413H51.1675C50.9166 21.3483 50.12 21.0408 48.8421 21.0408C47.1346 21.0408 46.4011 21.2254 46.4011 21.6139C46.4011 21.9825 46.9354 22.0954 49.031 22.177C52.425 22.3098 53.4493 22.8524 53.4493 24.5411C53.4493 26.1787 51.7629 27.0692 49.1228 27.0692C45.9906 27.0692 44.3143 26.1886 43.812 24.2748H46.0116C46.2733 25.0325 47.2352 25.3187 49.0915 25.3187C50.6142 25.3187 51.2116 25.1348 51.2116 24.6639Z" fill="currentColor"></path>
  <path d="M29.6658 19.5469H26.6491L22.6475 26.8164H25.2767L26.1046 25.2505H30.2728L31.1218 26.8164H33.751L29.6658 19.5469ZM27.0148 23.5073L28.1561 21.3378L29.33 23.5073H27.0148Z" fill="currentColor"></path><path d="M39.7164 11.0684H36.699L32.6974 18.3345H35.3293L36.1573 16.7687H40.3254L41.1751 18.3345H43.8043L39.7164 11.0684ZM37.0654 15.0288L38.206 12.8593L39.3806 15.0288H37.0654Z" fill="currentColor"></path>
</svg>
